<?xml version="1.0" encoding="UTF-8"?>
<svg xmlns="http://www.w3.org/2000/svg" xmlns:xlink="http://www.w3.org/1999/xlink" viewBox="0 0 250 250" width="250px" height="250px">
<g id="surface41811370">
<rect x="0" y="0" width="250" height="250" style="fill:rgb(100%,100%,100%);fill-opacity:1;stroke:none;"/>
<path style=" stroke:none;fill-rule:nonzero;fill:rgb(100%,47.450981%,24.705882%);fill-opacity:1;" d="M 125 20.351562 C 61.839844 20.351562 10.351562 64.609375 10.351562 120 C 10.351562 152.164062 27.953125 180.152344 55.019531 198.4375 C 54.976562 199.515625 55.054688 201.253906 53.644531 206.476562 C 51.890625 212.949219 48.363281 222.066406 41.191406 232.34375 L 36.09375 239.648438 L 45 239.648438 C 75.855469 239.648438 93.707031 219.539062 96.472656 216.308594 C 105.671875 218.464844 115.125 219.648438 125 219.648438 C 188.160156 219.648438 239.648438 175.390625 239.648438 120 C 239.648438 64.609375 188.160156 20.351562 125 20.351562 Z M 125 20.351562 "/>
</g>
</svg>
