<?xml version="1.0" encoding="UTF-8"?>
<svg xmlns="http://www.w3.org/2000/svg" xmlns:xlink="http://www.w3.org/1999/xlink" viewBox="0 0 100 100" width="100px" height="100px">
<g id="surface41831617">
<rect x="0" y="0" width="100" height="100" style="fill:rgb(100%,100%,100%);fill-opacity:1;stroke:none;"/>
<path style=" stroke:none;fill-rule:nonzero;fill:rgb(100%,47.450981%,24.705882%);fill-opacity:1;" d="M 50 8.140625 C 24.738281 8.140625 4.140625 25.84375 4.140625 48 C 4.140625 60.863281 11.179688 72.0625 22.007812 79.375 C 21.988281 79.804688 22.019531 80.5 21.457031 82.589844 C 20.757812 85.179688 19.34375 88.824219 16.476562 92.9375 L 14.4375 95.859375 L 18 95.859375 C 30.34375 95.859375 37.484375 87.816406 38.589844 86.523438 C 42.269531 87.386719 46.050781 87.859375 50 87.859375 C 75.261719 87.859375 95.859375 70.15625 95.859375 48 C 95.859375 25.84375 75.261719 8.140625 50 8.140625 Z M 50 8.140625 "/>
</g>
</svg>
