<?xml version="1.0" encoding="UTF-8"?>
<svg xmlns="http://www.w3.org/2000/svg" xmlns:xlink="http://www.w3.org/1999/xlink" viewBox="0 0 500 500" width="500px" height="500px">
<g id="surface41785419">
<rect x="0" y="0" width="500" height="500" style="fill:rgb(100%,100%,100%);fill-opacity:1;stroke:none;"/>
<path style=" stroke:none;fill-rule:nonzero;fill:rgb(100%,47.450981%,24.705882%);fill-opacity:1;" d="M 250 40.703125 C 123.683594 40.703125 20.703125 129.214844 20.703125 240 C 20.703125 304.324219 55.90625 360.308594 110.039062 396.875 C 109.949219 399.03125 110.105469 402.507812 107.285156 412.949219 C 103.785156 425.902344 96.726562 444.128906 82.382812 464.6875 L 72.1875 479.296875 L 90 479.296875 C 151.710938 479.296875 187.414062 439.074219 192.949219 432.617188 C 211.34375 436.933594 230.25 439.296875 250 439.296875 C 376.316406 439.296875 479.296875 350.785156 479.296875 240 C 479.296875 129.214844 376.316406 40.703125 250 40.703125 Z M 250 40.703125 "/>
</g>
</svg>
