<?xml version="1.0" encoding="UTF-8"?>
<svg xmlns="http://www.w3.org/2000/svg" xmlns:xlink="http://www.w3.org/1999/xlink" viewBox="0 0 50 50" width="50px" height="50px">
<g id="surface41811364">
<rect x="0" y="0" width="50" height="50" style="fill:rgb(100%,100%,100%);fill-opacity:1;stroke:none;"/>
<path style=" stroke:none;fill-rule:nonzero;fill:rgb(100%,47.450981%,24.705882%);fill-opacity:1;" d="M 25 4.070312 C 12.367188 4.070312 2.070312 12.921875 2.070312 24 C 2.070312 30.433594 5.589844 36.03125 11.003906 39.6875 C 10.996094 39.902344 11.011719 40.25 10.730469 41.296875 C 10.378906 42.589844 9.671875 44.414062 8.238281 46.46875 L 7.21875 47.929688 L 9 47.929688 C 15.171875 47.929688 18.742188 43.90625 19.292969 43.261719 C 21.132812 43.691406 23.023438 43.929688 25 43.929688 C 37.632812 43.929688 47.929688 35.078125 47.929688 24 C 47.929688 12.921875 37.632812 4.070312 25 4.070312 Z M 25 4.070312 "/>
</g>
</svg>
