<?xml version="1.0" encoding="UTF-8"?>
<svg xmlns="http://www.w3.org/2000/svg" xmlns:xlink="http://www.w3.org/1999/xlink" viewBox="0 0 200 200" width="200px" height="200px">
<g id="surface44773028">
<path style=" stroke:none;fill-rule:nonzero;fill:rgb(5.882353%,25.490198%,53.725493%);fill-opacity:1;" d="M 174.429688 113.421875 C 176.699219 109.109375 178 104.210938 178 99 C 178 85.757812 169.683594 74.484375 157.996094 70.042969 C 157.996094 70.03125 158 70.015625 158 70 C 158 46.804688 139.195312 28 116 28 C 96.433594 28 80.039062 41.402344 75.375 59.515625 C 72.421875 58.542969 69.277344 58 66 58 C 50.617188 58 37.953125 69.585938 36.21875 84.503906 C 25.8125 86.707031 18 95.9375 18 107 C 18 119.703125 28.296875 130 41 130 C 41.355469 130 41.703125 129.976562 42.050781 129.957031 C 42.042969 130.304688 42 130.648438 42 131 C 42 153.644531 60.355469 172 83 172 C 95.875 172 107.351562 166.054688 114.867188 156.773438 C 119.222656 161.222656 125.28125 164 132 164 C 141.300781 164 149.347656 158.699219 153.332031 150.964844 C 155.4375 151.632812 157.675781 152 160 152 C 172.148438 152 182 142.148438 182 130 C 182 123.378906 179.058594 117.453125 174.429688 113.421875 Z M 174.429688 113.421875 "/>
<path style=" stroke:none;fill-rule:nonzero;fill:rgb(100%,100%,100%);fill-opacity:1;" d="M 31 102 L 11 102 C 10.449219 102 10 101.550781 10 101 C 10 100.449219 10.449219 100 11 100 L 31 100 C 31.550781 100 32 100.449219 32 101 C 32 101.550781 31.554688 102 31 102 Z M 37 102 L 35 102 C 34.449219 102 34 101.550781 34 101 C 34 100.449219 34.449219 100 35 100 L 37 100 C 37.550781 100 38 100.449219 38 101 C 38 101.550781 37.554688 102 37 102 Z M 46.980469 106 L 29 106 C 28.449219 106 28 105.550781 28 105 C 28 104.449219 28.449219 104 29 104 L 46.980469 104 C 47.535156 104 47.980469 104.449219 47.980469 105 C 47.980469 105.550781 47.535156 106 46.980469 106 Z M 25 106 L 23 106 C 22.449219 106 22 105.550781 22 105 C 22 104.449219 22.449219 104 23 104 L 25 104 C 25.550781 104 26 104.449219 26 105 C 26 105.550781 25.554688 106 25 106 Z M 19 106 L 15 106 C 14.449219 106 14 105.550781 14 105 C 14 104.449219 14.449219 104 15 104 L 19 104 C 19.550781 104 20 104.449219 20 105 C 20 105.550781 19.554688 106 19 106 Z M 31 110 L 27 110 C 26.449219 110 26 109.550781 26 109 C 26 108.449219 26.449219 108 27 108 L 31 108 C 31.550781 108 32 108.449219 32 109 C 32 109.550781 31.550781 110 31 110 Z M 37 92 C 36.644531 92 35.355469 92 35 92 C 34.449219 92 34 92.449219 34 93 C 34 93.550781 34.449219 94 35 94 C 35.355469 94 36.644531 94 37 94 C 37.550781 94 38 93.550781 38 93 C 38 92.449219 37.550781 92 37 92 Z M 37 96 C 36.644531 96 27.355469 96 27 96 C 26.449219 96 26 96.449219 26 97 C 26 97.550781 26.449219 98 27 98 C 27.355469 98 36.644531 98 37 98 C 37.550781 98 38 97.550781 38 97 C 38 96.449219 37.550781 96 37 96 Z M 47 100 C 46.644531 100 41.355469 100 41 100 C 40.449219 100 40 100.449219 40 101 C 40 101.550781 40.449219 102 41 102 C 41.355469 102 46.644531 102 47 102 C 47.550781 102 48 101.550781 48 101 C 48 100.449219 47.550781 100 47 100 Z M 145 48 L 125 48 C 124.449219 48 124 47.550781 124 47 C 124 46.449219 124.449219 46 125 46 L 145 46 C 145.550781 46 146 46.449219 146 47 C 146 47.550781 145.550781 48 145 48 Z M 153 48 L 149 48 C 148.449219 48 148 47.550781 148 47 C 148 46.449219 148.449219 46 149 46 L 153 46 C 153.550781 46 154 46.449219 154 47 C 154 47.550781 153.550781 48 153 48 Z M 163 52 L 143 52 C 142.449219 52 142 51.550781 142 51 C 142 50.449219 142.449219 50 143 50 L 163 50 C 163.550781 50 164 50.449219 164 51 C 164 51.550781 163.554688 52 163 52 Z M 139 52 L 137 52 C 136.449219 52 136 51.550781 136 51 C 136 50.449219 136.449219 50 137 50 L 139 50 C 139.550781 50 140 50.449219 140 51 C 140 51.550781 139.550781 52 139 52 Z M 132.941406 52 L 129 52 C 128.449219 52 128 51.550781 128 51 C 128 50.449219 128.449219 50 129 50 L 132.941406 50 C 133.492188 50 133.941406 50.449219 133.941406 51 C 133.941406 51.550781 133.492188 52 132.941406 52 Z M 151 44 L 141 44 C 140.449219 44 140 43.550781 140 43 C 140 42.449219 140.449219 42 141 42 L 151 42 C 151.550781 42 152 42.449219 152 43 C 152 43.550781 151.554688 44 151 44 Z M 145 56 L 141 56 C 140.449219 56 140 55.550781 140 55 C 140 54.449219 140.449219 54 141 54 L 145 54 C 145.550781 54 146 54.449219 146 55 C 146 55.550781 145.550781 56 145 56 Z M 145 56 "/>
<path style=" stroke:none;fill-rule:nonzero;fill:rgb(31.37255%,55.686277%,80.000001%);fill-opacity:1;" d="M 102.550781 48.035156 C 86.414062 48.792969 74 62.695312 74 78.847656 L 74 94 L 86 94 L 86 78.617188 C 86 69.027344 93.234375 60.65625 102.800781 60.039062 C 113.285156 59.359375 122 67.660156 122 78 C 122 81.3125 124.6875 84 128 84 C 131.3125 84 134 81.3125 134 78 C 134 60.949219 119.777344 47.222656 102.550781 48.035156 Z M 102.550781 48.035156 "/>
<path style=" stroke:none;fill-rule:nonzero;fill:rgb(27.843139%,16.862746%,16.078432%);fill-opacity:1;" d="M 104 48 C 103.519531 48 103.035156 48.011719 102.550781 48.035156 C 86.414062 48.792969 74 62.695312 74 78.847656 L 74 94 L 86 94 L 86 78.617188 C 86 69.027344 93.234375 60.65625 102.800781 60.039062 C 103.203125 60.011719 103.605469 60 104 60 C 113.941406 60 122 68.058594 122 78 C 122 81.3125 124.6875 84 128 84 C 131.3125 84 134 81.3125 134 78 C 134 61.433594 120.566406 48 104 48 Z M 128 81.199219 C 126.234375 81.199219 124.800781 79.765625 124.800781 78 C 124.800781 66.53125 115.46875 57.199219 104 57.199219 C 103.542969 57.199219 103.085938 57.214844 102.621094 57.242188 C 91.730469 57.949219 83.199219 67.335938 83.199219 78.617188 L 83.199219 91.199219 L 76.796875 91.199219 L 76.796875 78.847656 C 76.796875 63.820312 88.164062 51.515625 102.679688 50.832031 C 103.125 50.808594 103.5625 50.800781 104 50.800781 C 118.996094 50.800781 131.199219 63.003906 131.199219 78 C 131.199219 79.765625 129.765625 81.199219 128 81.199219 Z M 128 81.199219 "/>
<path style=" stroke:none;fill-rule:nonzero;fill:rgb(100%,47.450981%,24.705882%);fill-opacity:1;" d="M 135.199219 91 L 72.800781 91 C 68.492188 91 65 94.453125 65 98.714844 L 65 125.714844 C 65 136.367188 73.730469 145 84.5 145 L 123.5 145 C 134.269531 145 143 136.367188 143 125.714844 L 143 98.714844 C 143 94.453125 139.507812 91 135.199219 91 Z M 135.199219 91 "/>
<path style=" stroke:none;fill-rule:nonzero;fill:rgb(94.901961%,97.254902%,100%);fill-opacity:1;" d="M 66 100 L 142 100 L 142 113 L 66 113 Z M 66 100 "/>
<path style=" stroke:none;fill-rule:nonzero;fill:rgb(31.37255%,55.686277%,80.000001%);fill-opacity:1;" d="M 108 124 C 108 121.789062 106.210938 120 104 120 C 101.789062 120 100 121.789062 100 124 C 100 125.304688 100.636719 126.453125 101.601562 127.183594 L 100 136 L 108 136 L 106.398438 127.183594 C 107.363281 126.453125 108 125.304688 108 124 Z M 108 124 "/>
<path style=" stroke:none;fill-rule:nonzero;fill:rgb(27.843139%,16.862746%,16.078432%);fill-opacity:1;" d="M 136 90 L 72 90 C 67.582031 90 64 93.582031 64 98 L 64 126 C 64 137.046875 72.953125 146 84 146 L 124 146 C 135.046875 146 144 137.046875 144 126 L 144 98 C 144 93.582031 140.417969 90 136 90 Z M 141.199219 126 C 141.199219 135.484375 133.484375 143.199219 124 143.199219 L 84 143.199219 C 74.515625 143.199219 66.800781 135.484375 66.800781 126 L 66.800781 98 C 66.800781 95.132812 69.132812 92.800781 72 92.800781 L 136 92.800781 C 138.867188 92.800781 141.199219 95.132812 141.199219 98 Z M 141.199219 126 "/>
<path style=" stroke:none;fill-rule:nonzero;fill:rgb(27.843139%,16.862746%,16.078432%);fill-opacity:1;" d="M 142 100 L 135 100 C 134.449219 100 134 100.449219 134 101 C 134 101.550781 134.449219 102 135 102 L 142 102 C 142.550781 102 143 101.550781 143 101 C 143 100.449219 142.550781 100 142 100 Z M 129 102 L 125 102 C 124.449219 102 124 101.550781 124 101 C 124 100.449219 124.449219 100 125 100 L 129 100 C 129.550781 100 130 100.449219 130 101 C 130 101.550781 129.550781 102 129 102 Z M 119 102 L 66 102 C 65.449219 102 65 101.550781 65 101 C 65 100.449219 65.449219 100 66 100 L 119 100 C 119.550781 100 120 100.449219 120 101 C 120 101.550781 119.550781 102 119 102 Z M 142 114 L 66 114 C 65.449219 114 65 113.550781 65 113 C 65 112.449219 65.449219 112 66 112 L 142 112 C 142.550781 112 143 112.449219 143 113 C 143 113.550781 142.550781 114 142 114 Z M 104 120.699219 C 105.820312 120.699219 107.300781 122.179688 107.300781 124 C 107.300781 125.035156 106.816406 125.988281 105.976562 126.625 C 105.765625 126.785156 105.660156 127.050781 105.707031 127.308594 L 107.160156 135.300781 L 100.839844 135.300781 L 102.289062 127.308594 C 102.339844 127.050781 102.234375 126.785156 102.023438 126.625 C 101.183594 125.988281 100.699219 125.035156 100.699219 124 C 100.699219 122.179688 102.179688 120.699219 104 120.699219 M 104 120 C 101.789062 120 100 121.789062 100 124 C 100 125.304688 100.636719 126.453125 101.601562 127.183594 L 100 136 L 108 136 L 106.398438 127.183594 C 107.363281 126.453125 108 125.304688 108 124 C 108 121.789062 106.210938 120 104 120 Z M 104 120 "/>
<path style=" stroke:none;fill-rule:nonzero;fill:rgb(27.843139%,16.862746%,16.078432%);fill-opacity:1;" d="M 65.71875 112.796875 L 74.132812 100.789062 L 74.707031 101.191406 L 66.292969 113.199219 Z M 65.71875 112.796875 "/>
<path style=" stroke:none;fill-rule:nonzero;fill:rgb(27.843139%,16.862746%,16.078432%);fill-opacity:1;" d="M 73.300781 112.796875 L 81.710938 100.789062 L 82.285156 101.191406 L 73.875 113.199219 Z M 73.300781 112.796875 "/>
<path style=" stroke:none;fill-rule:nonzero;fill:rgb(27.843139%,16.862746%,16.078432%);fill-opacity:1;" d="M 80.71875 112.796875 L 89.128906 100.792969 L 89.707031 101.195312 L 81.292969 113.199219 Z M 80.71875 112.796875 "/>
<path style=" stroke:none;fill-rule:nonzero;fill:rgb(27.843139%,16.862746%,16.078432%);fill-opacity:1;" d="M 88.296875 112.796875 L 96.707031 100.789062 L 97.28125 101.191406 L 88.871094 113.199219 Z M 88.296875 112.796875 "/>
<path style=" stroke:none;fill-rule:nonzero;fill:rgb(27.843139%,16.862746%,16.078432%);fill-opacity:1;" d="M 95.714844 112.796875 L 104.128906 100.789062 L 104.703125 101.191406 L 96.289062 113.199219 Z M 95.714844 112.796875 "/>
<path style=" stroke:none;fill-rule:nonzero;fill:rgb(27.843139%,16.862746%,16.078432%);fill-opacity:1;" d="M 103.296875 112.792969 L 111.710938 100.789062 L 112.285156 101.191406 L 103.871094 113.195312 Z M 103.296875 112.792969 "/>
<path style=" stroke:none;fill-rule:nonzero;fill:rgb(27.843139%,16.862746%,16.078432%);fill-opacity:1;" d="M 110.71875 112.792969 L 119.128906 100.789062 L 119.703125 101.191406 L 111.292969 113.195312 Z M 110.71875 112.792969 "/>
<path style=" stroke:none;fill-rule:nonzero;fill:rgb(27.843139%,16.862746%,16.078432%);fill-opacity:1;" d="M 118.296875 112.792969 L 126.710938 100.789062 L 127.285156 101.191406 L 118.871094 113.195312 Z M 118.296875 112.792969 "/>
<path style=" stroke:none;fill-rule:nonzero;fill:rgb(27.843139%,16.862746%,16.078432%);fill-opacity:1;" d="M 125.71875 112.792969 L 134.128906 100.789062 L 134.703125 101.191406 L 126.292969 113.195312 Z M 125.71875 112.792969 "/>
<path style=" stroke:none;fill-rule:nonzero;fill:rgb(27.843139%,16.862746%,16.078432%);fill-opacity:1;" d="M 133.296875 112.792969 L 141.710938 100.789062 L 142.285156 101.191406 L 133.871094 113.195312 Z M 133.296875 112.792969 "/>
<path style=" stroke:none;fill-rule:nonzero;fill:rgb(99.215686%,98.823529%,93.725491%);fill-opacity:1;" d="M 174 135 C 173.625 135 173.273438 135.066406 172.910156 135.109375 C 172.46875 131.671875 169.5625 129 166 129 C 163.824219 129 161.910156 130.011719 160.625 131.5625 C 160.847656 130.738281 161 129.890625 161 129 C 161 123.476562 156.523438 119 151 119 C 145.65625 119 141.335938 123.199219 141.054688 128.472656 C 139.40625 126.371094 136.875 125 134 125 C 129.03125 125 125 129.03125 125 134 C 125 134.375 125.066406 134.726562 125.109375 135.089844 C 120.5625 135.542969 117 139.335938 117 144 C 117 148.96875 121.03125 153 126 153 C 130.96875 153 140.25 153 140.25 153 L 155 153 C 155 153 169.03125 153 174 153 C 178.96875 153 183 148.96875 183 144 C 183 139.03125 178.96875 135 174 135 Z M 174 135 "/>
<path style=" stroke:none;fill-rule:nonzero;fill:rgb(27.843139%,16.862746%,16.078432%);fill-opacity:1;" d="M 174 134 C 173.902344 134 173.808594 134.003906 173.714844 134.011719 C 172.820312 130.523438 169.660156 128 166 128 C 164.578125 128 163.203125 128.382812 162 129.09375 C 162 129.0625 162 129.03125 162 129 C 162 122.933594 157.066406 118 151 118 C 145.890625 118 141.5625 121.519531 140.367188 126.328125 C 138.585938 124.832031 136.351562 124 134 124 C 128.484375 124 124 128.484375 124 134 C 124 134.082031 124.003906 134.164062 124.007812 134.246094 C 119.378906 135.175781 116 139.207031 116 144 C 116 149.515625 120.484375 154 126 154 L 139 154 C 139.550781 154 140 153.550781 140 153 C 140 152.449219 139.550781 152 139 152 L 126 152 C 121.589844 152 118 148.410156 118 144 C 118 139.898438 121.097656 136.492188 125.210938 136.085938 C 125.476562 136.058594 125.722656 135.925781 125.890625 135.714844 C 126.058594 135.503906 126.132812 135.234375 126.101562 134.96875 L 126.0625 134.6875 C 126.035156 134.460938 126 134.234375 126 134 C 126 129.589844 129.589844 126 134 126 C 136.441406 126 138.722656 127.125 140.265625 129.089844 C 140.457031 129.335938 140.75 129.472656 141.050781 129.472656 C 141.152344 129.472656 141.253906 129.457031 141.355469 129.425781 C 141.753906 129.300781 142.03125 128.941406 142.050781 128.527344 C 142.304688 123.742188 146.238281 120 151 120 C 155.960938 120 160 124.039062 160 129 C 160 129.703125 159.890625 130.4375 159.660156 131.304688 C 159.542969 131.761719 159.753906 132.238281 160.171875 132.453125 C 160.3125 132.527344 160.46875 132.5625 160.625 132.5625 C 160.914062 132.5625 161.203125 132.4375 161.398438 132.199219 C 162.554688 130.800781 164.230469 130 166 130 C 168.992188 130 171.535156 132.25 171.917969 135.234375 C 171.984375 135.738281 172.414062 136.109375 172.90625 136.109375 C 172.949219 136.109375 172.988281 136.109375 173.03125 136.101562 L 173.3125 136.0625 C 173.539062 136.035156 173.765625 136 174 136 C 178.410156 136 182 139.589844 182 144 C 182 148.410156 178.410156 152 174 152 L 145 152 C 144.449219 152 144 152.449219 144 153 C 144 153.550781 144.449219 154 145 154 L 174 154 C 179.515625 154 184 149.515625 184 144 C 184 138.484375 179.515625 134 174 134 Z M 174 134 "/>
<path style=" stroke:none;fill-rule:nonzero;fill:rgb(27.843139%,16.862746%,16.078432%);fill-opacity:1;" d="M 168.125 140 C 167.746094 140 167.363281 140.042969 166.957031 140.136719 C 166.644531 137.792969 164.652344 136 162.25 136 C 161.398438 136 160.558594 136.238281 159.824219 136.683594 C 159.21875 133.996094 156.804688 132 154 132 C 153.488281 132 152.964844 132.078125 152.363281 132.253906 C 152.097656 132.328125 151.941406 132.605469 152.019531 132.871094 C 152.082031 133.089844 152.277344 133.234375 152.496094 133.234375 C 152.542969 133.234375 152.589844 133.226562 152.636719 133.214844 C 153.148438 133.066406 153.585938 133 154 133 C 156.574219 133 158.753906 135.023438 158.960938 137.609375 C 158.976562 137.800781 159.097656 137.964844 159.273438 138.035156 C 159.332031 138.058594 159.394531 138.070312 159.457031 138.070312 C 159.574219 138.070312 159.695312 138.027344 159.789062 137.945312 C 160.480469 137.335938 161.355469 137 162.25 137 C 164.316406 137 166 138.683594 166 140.75 C 166 140.910156 166.074219 141.074219 166.203125 141.164062 C 166.296875 141.234375 166.40625 141.273438 166.515625 141.273438 C 166.558594 141.273438 166.605469 141.269531 166.648438 141.253906 C 167.1875 141.085938 167.667969 141 168.125 141 C 170.660156 141 172.785156 142.992188 172.964844 145.535156 C 172.980469 145.796875 173.203125 146 173.460938 146 C 173.472656 146 173.484375 146 173.496094 146 C 173.773438 145.980469 173.980469 145.738281 173.960938 145.464844 C 173.746094 142.398438 171.183594 140 168.125 140 Z M 126.234375 135 C 128.886719 135 131.25 136.792969 131.980469 139.363281 C 132.058594 139.628906 131.902344 139.90625 131.636719 139.980469 C 131.589844 139.992188 131.542969 140 131.5 140 C 131.28125 140 131.082031 139.855469 131.019531 139.636719 C 130.410156 137.496094 128.441406 136 126.234375 136 C 126 136 125.773438 136.027344 125.550781 136.058594 C 125.527344 136.0625 125.503906 136.0625 125.480469 136.0625 C 125.238281 136.0625 125.023438 135.878906 124.988281 135.628906 C 124.949219 135.355469 125.140625 135.105469 125.414062 135.066406 C 125.683594 135.03125 125.957031 135 126.234375 135 Z M 126.234375 135 "/>
<path style=" stroke:none;fill-rule:nonzero;fill:rgb(99.215686%,98.823529%,93.725491%);fill-opacity:1;" d="M 72.890625 121.089844 C 72.945312 120.730469 73 120.375 73 120 C 73 116.132812 69.867188 113 66 113 C 63.9375 113 62.101562 113.910156 60.820312 115.328125 C 60.050781 111.714844 56.847656 109 53 109 C 48.582031 109 45 112.582031 45 117 C 45 117.382812 45.058594 117.746094 45.113281 118.117188 C 44.257812 117.429688 43.183594 117 42 117 C 39.542969 117 37.511719 118.773438 37.089844 121.109375 C 36.730469 121.054688 36.375 121 36 121 C 32.132812 121 29 124.132812 29 128 C 29 131.867188 32.132812 135 36 135 C 39.867188 135 51 135 51 135 L 65 135 C 65 135 68.132812 135 72 135 C 75.867188 135 79 131.867188 79 128 C 79 124.4375 76.328125 121.53125 72.890625 121.089844 Z M 72.890625 121.089844 "/>
<path style=" stroke:none;fill-rule:nonzero;fill:rgb(27.843139%,16.862746%,16.078432%);fill-opacity:1;" d="M 68.5 126 C 68.222656 126 68 125.777344 68 125.5 C 68 123.054688 69.988281 121.0625 72.4375 121.0625 C 72.503906 121.082031 73.910156 121.0625 74.925781 121.335938 C 75.191406 121.40625 75.347656 121.683594 75.277344 121.949219 C 75.203125 122.214844 74.929688 122.375 74.664062 122.300781 C 73.777344 122.058594 72.464844 122.058594 72.4375 122.0625 C 70.542969 122.0625 69 123.605469 69 125.5 C 69 125.777344 68.777344 126 68.5 126 Z M 55 134 C 54.449219 134 54 134.449219 54 135 C 54 135.550781 54.449219 136 55 136 C 55.550781 136 56 135.550781 56 135 C 56 134.449219 55.550781 134 55 134 Z M 55 134 "/>
<path style=" stroke:none;fill-rule:nonzero;fill:rgb(27.843139%,16.862746%,16.078432%);fill-opacity:1;" d="M 73.992188 120.285156 C 73.996094 120.191406 74 120.097656 74 120 C 74 115.589844 70.410156 112 66 112 C 64.308594 112 62.667969 112.550781 61.304688 113.546875 C 59.933594 110.253906 56.660156 108 53 108 C 48.253906 108 44.351562 111.695312 44.023438 116.359375 C 43.378906 116.121094 42.699219 116 42 116 C 39.421875 116 37.175781 117.640625 36.347656 120.011719 C 36.230469 120.003906 36.117188 120 36 120 C 31.589844 120 28 123.589844 28 128 C 28 132.410156 31.589844 136 36 136 L 51 136 C 51.550781 136 52 135.550781 52 135 C 52 134.449219 51.550781 134 51 134 L 36 134 C 32.691406 134 30 131.308594 30 128 C 30 124.691406 32.691406 122 36 122 C 36.320312 122 36.628906 122.050781 36.9375 122.097656 C 37.480469 122.179688 37.976562 121.820312 38.074219 121.289062 C 38.414062 119.382812 40.066406 118 42 118 C 42.898438 118 43.757812 118.308594 44.484375 118.894531 C 44.804688 119.152344 45.238281 119.121094 45.597656 118.914062 C 45.957031 118.710938 46.140625 118.242188 46.082031 117.835938 C 46.042969 117.558594 46 117.285156 46 117 C 46 113.140625 49.140625 110 53 110 C 56.28125 110 59.160156 112.328125 59.84375 115.539062 C 59.921875 115.90625 60.199219 116.199219 60.5625 116.296875 C 60.921875 116.394531 61.3125 116.277344 61.5625 116 C 62.722656 114.710938 64.300781 114 66 114 C 69.308594 114 72 116.691406 72 120 C 72 120.320312 71.949219 120.628906 71.902344 120.9375 C 71.863281 121.203125 71.929688 121.472656 72.09375 121.691406 C 72.253906 121.90625 72.496094 122.046875 72.765625 122.082031 C 75.75 122.464844 78 125.007812 78 128 C 78 131.308594 75.308594 134 72 134 L 65 134 C 64.449219 134 64 134.449219 64 135 C 64 135.550781 64.449219 136 65 136 L 72 136 C 76.410156 136 80 132.410156 80 128 C 80 124.339844 77.476562 121.179688 73.992188 120.285156 Z M 73.992188 120.285156 "/>
<path style=" stroke:none;fill-rule:nonzero;fill:rgb(27.843139%,16.862746%,16.078432%);fill-opacity:1;" d="M 61 134 C 60.683594 134 59.316406 134 59 134 C 58.449219 134 58 134.449219 58 135 C 58 135.550781 58.449219 136 59 136 C 59.316406 136 60.683594 136 61 136 C 61.550781 136 62 135.550781 62 135 C 62 134.449219 61.550781 134 61 134 Z M 61 134 "/>
</g>
</svg>
