<?xml version="1.0" encoding="UTF-8"?>
<svg xmlns="http://www.w3.org/2000/svg" xmlns:xlink="http://www.w3.org/1999/xlink" viewBox="0 0 150 150" width="150px" height="150px">
<g id="surface41831622">
<rect x="0" y="0" width="150" height="150" style="fill:rgb(100%,100%,100%);fill-opacity:1;stroke:none;"/>
<path style=" stroke:none;fill-rule:nonzero;fill:rgb(100%,47.450981%,24.705882%);fill-opacity:1;" d="M 75 12.210938 C 37.105469 12.210938 6.210938 38.765625 6.210938 72 C 6.210938 91.296875 16.773438 108.09375 33.011719 119.0625 C 32.984375 119.710938 33.03125 120.753906 32.1875 123.886719 C 31.136719 127.769531 29.015625 133.238281 24.714844 139.40625 L 21.65625 143.789062 L 27 143.789062 C 45.511719 143.789062 56.226562 131.722656 57.882812 129.785156 C 63.402344 131.078125 69.074219 131.789062 75 131.789062 C 112.894531 131.789062 143.789062 105.234375 143.789062 72 C 143.789062 38.765625 112.894531 12.210938 75 12.210938 Z M 75 12.210938 "/>
</g>
</svg>
